<svg width="20" height="20" viewBox="0 0 20 20" fill="none" xmlns="http://www.w3.org/2000/svg">
<path d="M12.5002 15.0004H8.33322M15.0004 11.6668H8.33322M3.33282 18.334H16.6672C17.1093 18.334 17.5332 18.1584 17.8458 17.8458C18.1584 17.5332 18.334 17.1093 18.334 16.6672V3.33282C18.334 2.89075 18.1584 2.4668 17.8458 2.15421C17.5332 1.84162 17.1093 1.66602 16.6672 1.66602H6.66642C6.22435 1.66602 5.8004 1.84162 5.48781 2.15421C5.17522 2.4668 4.99962 2.89075 4.99962 3.33282V16.6672C4.99962 17.1093 4.82401 17.5332 4.51142 17.8458C4.19884 18.1584 3.77488 18.334 3.33282 18.334ZM3.33282 18.334C2.89075 18.334 2.4668 18.1584 2.15421 17.8458C1.84162 17.5332 1.66602 17.1093 1.66602 16.6672V9.16662C1.66602 8.72455 1.84162 8.3006 2.15421 7.98801C2.4668 7.67542 2.89075 7.49982 3.33282 7.49982H4.99962M9.16662 4.99962H14.167C14.6273 4.99962 15.0004 5.37274 15.0004 5.83302V7.49982C15.0004 7.96009 14.6273 8.33322 14.167 8.33322H9.16662C8.70634 8.33322 8.33322 7.96009 8.33322 7.49982V5.83302C8.33322 5.37274 8.70634 4.99962 9.16662 4.99962Z" stroke="#00B4A6" stroke-width="2" stroke-linecap="round"/>
</svg>
